<?xml version="1.0" standalone="no"?>
<!DOCTYPE svg PUBLIC "-//W3C//DTD SVG 20010904//EN"
 "http://www.w3.org/TR/2001/REC-SVG-20010904/DTD/svg10.dtd">
<svg version="1.0" xmlns="http://www.w3.org/2000/svg"
 width="656.000000pt" height="1280.000000pt" viewBox="0 0 656.000000 1280.000000"
 preserveAspectRatio="xMidYMid meet">
<metadata>
Created by potrace 1.15, written by Peter Selinger 2001-2017
</metadata>
<g transform="translate(0.000000,1280.000000) scale(0.100000,-0.100000)"
fill="#000000" stroke="none">
<path d="M1385 12396 c-214 -222 -390 -408 -390 -414 0 -6 177 -193 394 -416
l394 -406 1471 0 1471 1 420 400 c231 221 421 404 423 408 1 4 -184 192 -411
419 l-414 412 -1484 0 -1484 0 -390 -404z"/>
<path d="M408 11066 l-408 -411 0 -1485 0 -1485 408 -396 409 -397 411 401
412 400 0 1471 -1 1471 -400 420 c-220 231 -406 421 -412 421 -7 1 -195 -184
-419 -410z"/>
<path d="M5328 11066 l-408 -412 0 -1485 0 -1484 408 -397 409 -396 411 400
412 401 0 1471 -1 1471 -400 420 c-220 231 -406 421 -412 421 -7 1 -195 -184
-419 -410z"/>
<path d="M413 5490 l-413 -417 0 -1484 0 -1484 401 -389 c220 -214 407 -389
414 -390 7 0 196 176 419 393 l406 394 0 1471 -1 1471 -395 415 c-217 228
-401 420 -407 426 -9 8 -118 -96 -424 -406z"/>
<path d="M5333 5490 l-413 -417 0 -1484 0 -1484 406 -393 c223 -216 409 -392
414 -390 5 2 192 180 415 397 l405 394 0 1471 -1 1471 -395 415 c-217 228
-401 420 -407 426 -9 8 -117 -95 -424 -406z"/>
<path d="M1382 1234 c-216 -223 -392 -410 -390 -414 2 -4 180 -191 397 -414
l395 -406 1470 0 1471 1 325 311 c179 171 370 353 424 405 l99 94 -414 415
-414 414 -1485 0 -1485 0 -393 -406z"/>
</g>
</svg>
